<?xml version="1.0" encoding="utf-8"?>
<svg version="1.1" id="comat_logo" xmlns="http://www.w3.org/2000/svg" xmlns:xlink="http://www.w3.org/1999/xlink" 
	 x="0px" y="0px" viewBox="0 0 100 100" style="enable-background:new 0 0 100 100;" xml:space="preserve">
<style type="text/css">
	.st0{fill:#C5A059;} /* Using MUST Gold color */
</style>
<g>
    <path class="st0" d="M84.5,15.5C75.2,6.2,62.8,1,49.6,1c-13.2,0-25.6,5.2-34.9,14.5c-19.3,19.3-19.3,50.6,0,69.9
		C24,94.8,36.4,100,49.6,100c6.7,0,13.2-1.3,19.3-3.9c1.6-0.7,2.3-2.6,1.6-4.2c-0.7-1.6-2.6-2.3-4.2-1.6c-5.2,2.2-10.7,3.3-16.3,3.3
		C38.3,93.6,27.8,89.2,19.8,81.2c-16.6-16.6-16.6-43.7,0-60.3c7.9-7.9,18.6-12.3,29.8-12.3s21.8,4.3,29.8,12.3c3,3,5.4,6.4,7.3,10.2
		c0.9,1.8,3.2,2.5,5,1.6s2.5-3.2,1.6-5C91.2,23,88.2,19.1,84.5,15.5z"/>
    
    <path class="st0" d="M74.8,38.7c-0.8-1-1.9-1.5-3.2-1.5H35.3c-1.3,0-2.4,0.6-3.2,1.5c-0.8,1-1.1,2.2-0.8,3.4l6.1,27.9
		c0.4,1.8,2,3.2,3.9,3.2h26.4c1.9,0,3.5-1.3,3.9-3.2l6.1-27.9C75.9,40.9,75.6,39.7,74.8,38.7z M64.6,63.1c-1.1,1.1-2.9,1.1-4.1,0
		l-6-6l-3.2,3.2c-1.1,1.1-2.9,1.1-4.1,0c-1.1-1.1-1.1-2.9,0-4.1l5.2-5.2c1.1-1.1,2.9-1.1,4.1,0L54,48.5l6,6l3.2-3.2
		c1.1-1.1,2.9-1.1,4.1,0C65.7,52.4,65.7,54.2,64.6,53.3L64.6,63.1z M79.2,31.4l-3.3-5.7c-0.9-1.6-3-2.2-4.6-1.3l-5.7,3.3
		c-1.6,0.9-2.2,3-1.3,4.6l3.3,5.7c0.9,1.6,3,2.2,4.6,1.3l5.7-3.3C79.5,35.1,80.1,33,79.2,31.4z M20.8,31.4l3.3-5.7
		c0.9-1.6,3-2.2,4.6-1.3l5.7,3.3c1.6,0.9,2.2,3,1.3,4.6l-3.3,5.7c-0.9,1.6-3,2.2-4.6,1.3l-5.7-3.3C19.9,35.1,19.3,33,20.8,31.4z"/>
</g>
</svg>
